<svg width="1920" height="601" viewBox="0 0 1920 601" fill="none" xmlns="http://www.w3.org/2000/svg">
<mask id="mask0_7_1120" style="mask-type:alpha" maskUnits="userSpaceOnUse" x="0" y="0" width="1920" height="601">
<rect y="0.721924" width="1920" height="600" fill="#C12987"/>
</mask>
<g mask="url(#mask0_7_1120)">
<g opacity="0.05">
<rect x="0.25" y="2.25" width="79.5" height="79.5" stroke="#E6E6E6" stroke-width="0.5"/>
<rect x="80.25" y="2.25" width="79.5" height="79.5" stroke="#E6E6E6" stroke-width="0.5"/>
<rect x="160" y="2" width="80" height="80" fill="url(#paint0_linear_7_1120)" fill-opacity="0.76"/>
<rect x="240.25" y="2.25" width="79.5" height="79.5" stroke="#E6E6E6" stroke-width="0.5"/>
<rect x="320.25" y="2.25" width="79.5" height="79.5" stroke="#E6E6E6" stroke-width="0.5"/>
<rect x="400.25" y="2.25" width="79.5" height="79.5" stroke="#E6E6E6" stroke-width="0.5"/>
<rect x="480.25" y="2.25" width="79.5" height="79.5" stroke="#E6E6E6" stroke-width="0.5"/>
<rect x="560.25" y="2.25" width="79.5" height="79.5" stroke="#E6E6E6" stroke-width="0.5"/>
<rect x="640.25" y="2.25" width="79.5" height="79.5" stroke="#E6E6E6" stroke-width="0.5"/>
<rect x="720.25" y="2.25" width="79.5" height="79.5" stroke="#E6E6E6" stroke-width="0.5"/>
<rect x="800.25" y="2.25" width="79.5" height="79.5" stroke="#E6E6E6" stroke-width="0.5"/>
<rect x="880.25" y="2.25" width="79.5" height="79.5" stroke="#E6E6E6" stroke-width="0.5"/>
<rect x="960.25" y="2.25" width="79.5" height="79.5" stroke="#E6E6E6" stroke-width="0.5"/>
<rect x="1040.25" y="2.25" width="79.5" height="79.5" stroke="#E6E6E6" stroke-width="0.5"/>
<rect x="1120.25" y="2.25" width="79.5" height="79.5" stroke="#E6E6E6" stroke-width="0.5"/>
<rect x="1200.25" y="2.25" width="79.5" height="79.5" stroke="#E6E6E6" stroke-width="0.5"/>
<rect x="1280.25" y="2.25" width="79.5" height="79.5" stroke="#E6E6E6" stroke-width="0.5"/>
<rect x="1360.25" y="2.25" width="79.5" height="79.5" stroke="#E6E6E6" stroke-width="0.5"/>
<rect x="1440.25" y="2.25" width="79.5" height="79.5" stroke="#E6E6E6" stroke-width="0.5"/>
<rect x="1520.25" y="2.25" width="79.5" height="79.5" stroke="#E6E6E6" stroke-width="0.5"/>
<rect x="1600.25" y="2.25" width="79.5" height="79.5" stroke="#E6E6E6" stroke-width="0.5"/>
<rect x="1680.25" y="2.25" width="79.5" height="79.5" stroke="#E6E6E6" stroke-width="0.5"/>
<rect x="1760.25" y="2.25" width="79.5" height="79.5" stroke="#E6E6E6" stroke-width="0.5"/>
<rect x="1840.25" y="2.25" width="79.5" height="79.5" stroke="#E6E6E6" stroke-width="0.5"/>
<rect x="0.25" y="82.25" width="79.5" height="79.5" stroke="#E6E6E6" stroke-width="0.5"/>
<rect x="80.25" y="82.25" width="79.5" height="79.5" stroke="#E6E6E6" stroke-width="0.5"/>
<rect x="160.25" y="82.25" width="79.5" height="79.5" stroke="#E6E6E6" stroke-width="0.5"/>
<rect x="240.25" y="82.25" width="79.5" height="79.5" stroke="#E6E6E6" stroke-width="0.5"/>
<rect x="320.25" y="82.25" width="79.5" height="79.5" stroke="#E6E6E6" stroke-width="0.5"/>
<rect x="400" y="82" width="80" height="80" fill="url(#paint1_linear_7_1120)" fill-opacity="0.76"/>
<rect x="480.25" y="82.25" width="79.5" height="79.5" stroke="#E6E6E6" stroke-width="0.5"/>
<rect x="560.25" y="82.25" width="79.5" height="79.5" stroke="#E6E6E6" stroke-width="0.5"/>
<rect x="640.25" y="82.25" width="79.5" height="79.5" stroke="#E6E6E6" stroke-width="0.5"/>
<rect x="720.25" y="82.25" width="79.5" height="79.5" stroke="#E6E6E6" stroke-width="0.5"/>
<rect x="800.25" y="82.25" width="79.5" height="79.5" stroke="#E6E6E6" stroke-width="0.5"/>
<rect x="880.25" y="82.25" width="79.5" height="79.5" stroke="#E6E6E6" stroke-width="0.5"/>
<rect x="960.25" y="82.25" width="79.5" height="79.5" stroke="#E6E6E6" stroke-width="0.5"/>
<rect x="1040.25" y="82.25" width="79.5" height="79.5" stroke="#E6E6E6" stroke-width="0.5"/>
<rect x="1120" y="82" width="80" height="80" fill="url(#paint2_linear_7_1120)" fill-opacity="0.76"/>
<rect x="1200.25" y="82.25" width="79.5" height="79.5" stroke="#E6E6E6" stroke-width="0.5"/>
<rect x="1280.25" y="82.25" width="79.5" height="79.5" stroke="#E6E6E6" stroke-width="0.5"/>
<rect x="1360.25" y="82.25" width="79.5" height="79.5" stroke="#E6E6E6" stroke-width="0.5"/>
<rect x="1440.25" y="82.25" width="79.5" height="79.5" stroke="#E6E6E6" stroke-width="0.5"/>
<rect x="1520.25" y="82.25" width="79.5" height="79.5" stroke="#E6E6E6" stroke-width="0.5"/>
<rect x="1600.25" y="82.25" width="79.5" height="79.5" stroke="#E6E6E6" stroke-width="0.5"/>
<rect x="1680.25" y="82.25" width="79.5" height="79.5" stroke="#E6E6E6" stroke-width="0.5"/>
<rect x="1760.25" y="82.25" width="79.5" height="79.5" stroke="#E6E6E6" stroke-width="0.5"/>
<rect x="1840.25" y="82.25" width="79.5" height="79.5" stroke="#E6E6E6" stroke-width="0.5"/>
<rect x="0.25" y="162.25" width="79.5" height="79.5" stroke="#E6E6E6" stroke-width="0.5"/>
<rect x="80.25" y="162.25" width="79.5" height="79.5" stroke="#E6E6E6" stroke-width="0.5"/>
<rect x="160.25" y="162.25" width="79.5" height="79.5" stroke="#E6E6E6" stroke-width="0.5"/>
<rect x="240.25" y="162.25" width="79.5" height="79.5" stroke="#E6E6E6" stroke-width="0.5"/>
<rect x="320.25" y="162.25" width="79.5" height="79.5" stroke="#E6E6E6" stroke-width="0.5"/>
<rect x="400.25" y="162.25" width="79.5" height="79.5" stroke="#E6E6E6" stroke-width="0.5"/>
<rect x="480.25" y="162.25" width="79.5" height="79.5" stroke="#E6E6E6" stroke-width="0.5"/>
<rect x="560.25" y="162.25" width="79.5" height="79.5" stroke="#E6E6E6" stroke-width="0.5"/>
<rect x="640.25" y="162.25" width="79.5" height="79.5" stroke="#E6E6E6" stroke-width="0.5"/>
<rect x="720.25" y="162.25" width="79.5" height="79.5" stroke="#E6E6E6" stroke-width="0.5"/>
<rect x="800.25" y="162.25" width="79.5" height="79.5" stroke="#E6E6E6" stroke-width="0.5"/>
<rect x="880.25" y="162.25" width="79.5" height="79.5" stroke="#E6E6E6" stroke-width="0.5"/>
<rect x="960.25" y="162.25" width="79.5" height="79.5" stroke="#E6E6E6" stroke-width="0.5"/>
<rect x="1040.25" y="162.25" width="79.5" height="79.5" stroke="#E6E6E6" stroke-width="0.5"/>
<rect x="1120.25" y="162.25" width="79.5" height="79.5" stroke="#E6E6E6" stroke-width="0.5"/>
<rect x="1200.25" y="162.25" width="79.5" height="79.5" stroke="#E6E6E6" stroke-width="0.5"/>
<rect x="1280.25" y="162.25" width="79.5" height="79.5" stroke="#E6E6E6" stroke-width="0.5"/>
<rect x="1360.25" y="162.25" width="79.5" height="79.5" stroke="#E6E6E6" stroke-width="0.5"/>
<rect x="1440.25" y="162.25" width="79.5" height="79.5" stroke="#E6E6E6" stroke-width="0.5"/>
<rect x="1520.25" y="162.25" width="79.5" height="79.5" stroke="#E6E6E6" stroke-width="0.5"/>
<rect x="1600.25" y="162.25" width="79.5" height="79.5" stroke="#E6E6E6" stroke-width="0.5"/>
<rect x="1680.25" y="162.25" width="79.5" height="79.5" stroke="#E6E6E6" stroke-width="0.5"/>
<rect x="1760.25" y="162.25" width="79.5" height="79.5" stroke="#E6E6E6" stroke-width="0.5"/>
<rect x="1840.25" y="162.25" width="79.5" height="79.5" stroke="#E6E6E6" stroke-width="0.5"/>
<rect x="0.25" y="242.25" width="79.5" height="79.5" stroke="#E6E6E6" stroke-width="0.5"/>
<rect x="80.25" y="242.25" width="79.5" height="79.5" stroke="#E6E6E6" stroke-width="0.5"/>
<rect x="160.25" y="242.25" width="79.5" height="79.5" stroke="#E6E6E6" stroke-width="0.5"/>
<rect x="240.25" y="242.25" width="79.5" height="79.5" stroke="#E6E6E6" stroke-width="0.5"/>
<rect x="320.25" y="242.25" width="79.5" height="79.5" stroke="#E6E6E6" stroke-width="0.5"/>
<rect x="400.25" y="242.25" width="79.5" height="79.5" stroke="#E6E6E6" stroke-width="0.5"/>
<rect x="480.25" y="242.25" width="79.5" height="79.5" stroke="#E6E6E6" stroke-width="0.5"/>
<rect x="560.25" y="242.25" width="79.5" height="79.5" stroke="#E6E6E6" stroke-width="0.5"/>
<rect x="640.25" y="242.25" width="79.5" height="79.5" stroke="#E6E6E6" stroke-width="0.5"/>
<rect x="720.25" y="242.25" width="79.5" height="79.5" stroke="#E6E6E6" stroke-width="0.5"/>
<rect x="800.25" y="242.25" width="79.5" height="79.5" stroke="#E6E6E6" stroke-width="0.5"/>
<rect x="880.25" y="242.25" width="79.5" height="79.5" stroke="#E6E6E6" stroke-width="0.5"/>
<rect x="960.25" y="242.25" width="79.5" height="79.5" stroke="#E6E6E6" stroke-width="0.5"/>
<rect x="1040.25" y="242.25" width="79.5" height="79.5" stroke="#E6E6E6" stroke-width="0.5"/>
<rect x="1120.25" y="242.25" width="79.5" height="79.5" stroke="#E6E6E6" stroke-width="0.5"/>
<rect x="1200.25" y="242.25" width="79.5" height="79.5" stroke="#E6E6E6" stroke-width="0.5"/>
<rect x="1280.25" y="242.25" width="79.5" height="79.5" stroke="#E6E6E6" stroke-width="0.5"/>
<rect x="1360.25" y="242.25" width="79.5" height="79.5" stroke="#E6E6E6" stroke-width="0.5"/>
<rect x="1440.25" y="242.25" width="79.5" height="79.5" stroke="#E6E6E6" stroke-width="0.5"/>
<rect x="1520.25" y="242.25" width="79.5" height="79.5" stroke="#E6E6E6" stroke-width="0.5"/>
<rect x="1600.25" y="242.25" width="79.5" height="79.5" stroke="#E6E6E6" stroke-width="0.5"/>
<rect x="1680.25" y="242.25" width="79.5" height="79.5" stroke="#E6E6E6" stroke-width="0.5"/>
<rect x="1760.25" y="242.25" width="79.5" height="79.5" stroke="#E6E6E6" stroke-width="0.5"/>
<rect x="1840.25" y="242.25" width="79.5" height="79.5" stroke="#E6E6E6" stroke-width="0.5"/>
<rect x="0.25" y="322.25" width="79.5" height="79.5" stroke="#E6E6E6" stroke-width="0.5"/>
<rect x="80.25" y="322.25" width="79.5" height="79.5" stroke="#E6E6E6" stroke-width="0.5"/>
<rect x="160.25" y="322.25" width="79.5" height="79.5" stroke="#E6E6E6" stroke-width="0.5"/>
<rect x="240.25" y="322.25" width="79.5" height="79.5" stroke="#E6E6E6" stroke-width="0.5"/>
<rect x="320.25" y="322.25" width="79.5" height="79.5" stroke="#E6E6E6" stroke-width="0.5"/>
<rect x="400.25" y="322.25" width="79.5" height="79.5" stroke="#E6E6E6" stroke-width="0.5"/>
<rect x="480.25" y="322.25" width="79.5" height="79.5" stroke="#E6E6E6" stroke-width="0.5"/>
<rect x="560.25" y="322.25" width="79.5" height="79.5" stroke="#E6E6E6" stroke-width="0.5"/>
<rect x="640.25" y="322.25" width="79.5" height="79.5" stroke="#E6E6E6" stroke-width="0.5"/>
<rect x="720.25" y="322.25" width="79.5" height="79.5" stroke="#E6E6E6" stroke-width="0.5"/>
<rect x="800.25" y="322.25" width="79.5" height="79.5" stroke="#E6E6E6" stroke-width="0.5"/>
<rect x="880.25" y="322.25" width="79.5" height="79.5" stroke="#E6E6E6" stroke-width="0.5"/>
<rect x="960.25" y="322.25" width="79.5" height="79.5" stroke="#E6E6E6" stroke-width="0.5"/>
<rect x="1040.25" y="322.25" width="79.5" height="79.5" stroke="#E6E6E6" stroke-width="0.5"/>
<rect x="1120.25" y="322.25" width="79.5" height="79.5" stroke="#E6E6E6" stroke-width="0.5"/>
<rect x="1200.25" y="322.25" width="79.5" height="79.5" stroke="#E6E6E6" stroke-width="0.5"/>
<rect x="1280.25" y="322.25" width="79.5" height="79.5" stroke="#E6E6E6" stroke-width="0.5"/>
<rect x="1360.25" y="322.25" width="79.5" height="79.5" stroke="#E6E6E6" stroke-width="0.5"/>
<rect x="1440.25" y="322.25" width="79.5" height="79.5" stroke="#E6E6E6" stroke-width="0.5"/>
<rect x="1520.25" y="322.25" width="79.5" height="79.5" stroke="#E6E6E6" stroke-width="0.5"/>
<rect x="1600.25" y="322.25" width="79.5" height="79.5" stroke="#E6E6E6" stroke-width="0.5"/>
<rect x="1680.25" y="322.25" width="79.5" height="79.5" stroke="#E6E6E6" stroke-width="0.5"/>
<rect x="1760.25" y="322.25" width="79.5" height="79.5" stroke="#E6E6E6" stroke-width="0.5"/>
<rect x="1840.25" y="322.25" width="79.5" height="79.5" stroke="#E6E6E6" stroke-width="0.5"/>
<rect x="0.25" y="402.25" width="79.5" height="79.5" stroke="#E6E6E6" stroke-width="0.5"/>
<rect x="80.25" y="402.25" width="79.5" height="79.5" stroke="#E6E6E6" stroke-width="0.5"/>
<rect x="160.25" y="402.25" width="79.5" height="79.5" stroke="#E6E6E6" stroke-width="0.5"/>
<rect x="240.25" y="402.25" width="79.5" height="79.5" stroke="#E6E6E6" stroke-width="0.5"/>
<rect x="320.25" y="402.25" width="79.5" height="79.5" stroke="#E6E6E6" stroke-width="0.5"/>
<rect x="400.25" y="402.25" width="79.5" height="79.5" stroke="#E6E6E6" stroke-width="0.5"/>
<rect x="480.25" y="402.25" width="79.5" height="79.5" stroke="#E6E6E6" stroke-width="0.5"/>
<rect x="560.25" y="402.25" width="79.5" height="79.5" stroke="#E6E6E6" stroke-width="0.5"/>
<rect x="640.25" y="402.25" width="79.5" height="79.5" stroke="#E6E6E6" stroke-width="0.5"/>
<rect x="720.25" y="402.25" width="79.5" height="79.5" stroke="#E6E6E6" stroke-width="0.5"/>
<rect x="800.25" y="402.25" width="79.5" height="79.5" stroke="#E6E6E6" stroke-width="0.5"/>
<rect x="880.25" y="402.25" width="79.5" height="79.5" stroke="#E6E6E6" stroke-width="0.5"/>
<rect x="960.25" y="402.25" width="79.5" height="79.5" stroke="#E6E6E6" stroke-width="0.5"/>
<rect x="1040.25" y="402.25" width="79.5" height="79.5" stroke="#E6E6E6" stroke-width="0.5"/>
<rect x="1120.25" y="402.25" width="79.5" height="79.5" stroke="#E6E6E6" stroke-width="0.5"/>
<rect x="1200.25" y="402.25" width="79.5" height="79.5" stroke="#E6E6E6" stroke-width="0.5"/>
<rect x="1280.25" y="402.25" width="79.5" height="79.5" stroke="#E6E6E6" stroke-width="0.5"/>
<rect x="1360.25" y="402.25" width="79.5" height="79.5" stroke="#E6E6E6" stroke-width="0.5"/>
<rect x="1440.25" y="402.25" width="79.5" height="79.5" stroke="#E6E6E6" stroke-width="0.5"/>
<rect x="1520.25" y="402.25" width="79.5" height="79.5" stroke="#E6E6E6" stroke-width="0.5"/>
<rect x="1600.25" y="402.25" width="79.5" height="79.5" stroke="#E6E6E6" stroke-width="0.5"/>
<rect x="1680.25" y="402.25" width="79.5" height="79.5" stroke="#E6E6E6" stroke-width="0.5"/>
<rect x="1760.25" y="402.25" width="79.5" height="79.5" stroke="#E6E6E6" stroke-width="0.5"/>
<rect x="1840.25" y="402.25" width="79.5" height="79.5" stroke="#E6E6E6" stroke-width="0.5"/>
<rect x="0.25" y="482.25" width="79.5" height="79.5" stroke="#E6E6E6" stroke-width="0.5"/>
<rect x="80.25" y="482.25" width="79.5" height="79.5" stroke="#E6E6E6" stroke-width="0.5"/>
<rect x="160.25" y="482.25" width="79.5" height="79.5" stroke="#E6E6E6" stroke-width="0.5"/>
<rect x="240.25" y="482.25" width="79.5" height="79.5" stroke="#E6E6E6" stroke-width="0.5"/>
<rect x="320.25" y="482.25" width="79.5" height="79.5" stroke="#E6E6E6" stroke-width="0.5"/>
<rect x="400.25" y="482.25" width="79.5" height="79.5" stroke="#E6E6E6" stroke-width="0.5"/>
<rect x="480.25" y="482.25" width="79.5" height="79.5" stroke="#E6E6E6" stroke-width="0.5"/>
<rect x="560.25" y="482.25" width="79.5" height="79.5" stroke="#E6E6E6" stroke-width="0.5"/>
<rect x="640.25" y="482.25" width="79.5" height="79.5" stroke="#E6E6E6" stroke-width="0.5"/>
<rect x="720.25" y="482.25" width="79.5" height="79.5" stroke="#E6E6E6" stroke-width="0.5"/>
<rect x="800.25" y="482.25" width="79.5" height="79.5" stroke="#E6E6E6" stroke-width="0.5"/>
<rect x="880.25" y="482.25" width="79.5" height="79.5" stroke="#E6E6E6" stroke-width="0.5"/>
<rect x="960.25" y="482.25" width="79.5" height="79.5" stroke="#E6E6E6" stroke-width="0.5"/>
<rect x="1040.25" y="482.25" width="79.5" height="79.5" stroke="#E6E6E6" stroke-width="0.5"/>
<rect x="1120.25" y="482.25" width="79.5" height="79.5" stroke="#E6E6E6" stroke-width="0.5"/>
<rect x="1200.25" y="482.25" width="79.5" height="79.5" stroke="#E6E6E6" stroke-width="0.5"/>
<rect x="1280.25" y="482.25" width="79.5" height="79.5" stroke="#E6E6E6" stroke-width="0.5"/>
<rect x="1360.25" y="482.25" width="79.5" height="79.5" stroke="#E6E6E6" stroke-width="0.5"/>
<rect x="1440.25" y="482.25" width="79.5" height="79.5" stroke="#E6E6E6" stroke-width="0.5"/>
<rect x="1520.25" y="482.25" width="79.5" height="79.5" stroke="#E6E6E6" stroke-width="0.5"/>
<rect x="1600.25" y="482.25" width="79.5" height="79.5" stroke="#E6E6E6" stroke-width="0.5"/>
<rect x="1680.25" y="482.25" width="79.5" height="79.5" stroke="#E6E6E6" stroke-width="0.5"/>
<rect x="1760.25" y="482.25" width="79.5" height="79.5" stroke="#E6E6E6" stroke-width="0.5"/>
<rect x="1840.25" y="482.25" width="79.5" height="79.5" stroke="#E6E6E6" stroke-width="0.5"/>
<rect x="0.25" y="562.25" width="79.5" height="79.5" stroke="#E6E6E6" stroke-width="0.5"/>
<rect x="80.25" y="562.25" width="79.5" height="79.5" stroke="#E6E6E6" stroke-width="0.5"/>
<rect x="160.25" y="562.25" width="79.5" height="79.5" stroke="#E6E6E6" stroke-width="0.5"/>
<rect x="240.25" y="562.25" width="79.5" height="79.5" stroke="#E6E6E6" stroke-width="0.5"/>
<rect x="320.25" y="562.25" width="79.5" height="79.5" stroke="#E6E6E6" stroke-width="0.5"/>
<rect x="400.25" y="562.25" width="79.5" height="79.5" stroke="#E6E6E6" stroke-width="0.5"/>
<rect x="480.25" y="562.25" width="79.5" height="79.5" stroke="#E6E6E6" stroke-width="0.5"/>
<rect x="560.25" y="562.25" width="79.5" height="79.5" stroke="#E6E6E6" stroke-width="0.5"/>
<rect x="640.25" y="562.25" width="79.5" height="79.5" stroke="#E6E6E6" stroke-width="0.5"/>
<rect x="720.25" y="562.25" width="79.5" height="79.5" stroke="#E6E6E6" stroke-width="0.5"/>
<rect x="800.25" y="562.25" width="79.5" height="79.5" stroke="#E6E6E6" stroke-width="0.5"/>
<rect x="880.25" y="562.25" width="79.5" height="79.5" stroke="#E6E6E6" stroke-width="0.5"/>
<rect x="960.25" y="562.25" width="79.5" height="79.5" stroke="#E6E6E6" stroke-width="0.5"/>
<rect x="1040.25" y="562.25" width="79.5" height="79.5" stroke="#E6E6E6" stroke-width="0.5"/>
<rect x="1120.25" y="562.25" width="79.5" height="79.5" stroke="#E6E6E6" stroke-width="0.5"/>
<rect x="1200.25" y="562.25" width="79.5" height="79.5" stroke="#E6E6E6" stroke-width="0.5"/>
<rect x="1280.25" y="562.25" width="79.5" height="79.5" stroke="#E6E6E6" stroke-width="0.5"/>
<rect x="1360.25" y="562.25" width="79.5" height="79.5" stroke="#E6E6E6" stroke-width="0.5"/>
<rect x="1440.25" y="562.25" width="79.5" height="79.5" stroke="#E6E6E6" stroke-width="0.5"/>
<rect x="1520.25" y="562.25" width="79.5" height="79.5" stroke="#E6E6E6" stroke-width="0.5"/>
<rect x="1600.25" y="562.25" width="79.5" height="79.5" stroke="#E6E6E6" stroke-width="0.5"/>
<rect x="1680.25" y="562.25" width="79.5" height="79.5" stroke="#E6E6E6" stroke-width="0.5"/>
<rect x="1760.25" y="562.25" width="79.5" height="79.5" stroke="#E6E6E6" stroke-width="0.5"/>
<rect x="1840.25" y="562.25" width="79.5" height="79.5" stroke="#E6E6E6" stroke-width="0.5"/>
</g>
</g>
<defs>
<linearGradient id="paint0_linear_7_1120" x1="200" y1="2" x2="200" y2="82" gradientUnits="userSpaceOnUse">
<stop stop-color="#E6E6E6"/>
<stop offset="1" stop-color="#E6E6E6" stop-opacity="0"/>
<stop offset="1" stop-color="#E6E6E6" stop-opacity="0.5"/>
</linearGradient>
<linearGradient id="paint1_linear_7_1120" x1="440" y1="82" x2="440" y2="162" gradientUnits="userSpaceOnUse">
<stop stop-color="#E6E6E6"/>
<stop offset="1" stop-color="#E6E6E6" stop-opacity="0"/>
<stop offset="1" stop-color="#E6E6E6" stop-opacity="0.5"/>
</linearGradient>
<linearGradient id="paint2_linear_7_1120" x1="1160" y1="82" x2="1160" y2="162" gradientUnits="userSpaceOnUse">
<stop stop-color="#E6E6E6"/>
<stop offset="1" stop-color="#E6E6E6" stop-opacity="0"/>
<stop offset="1" stop-color="#E6E6E6" stop-opacity="0.5"/>
</linearGradient>
</defs>
</svg>
