<svg width="1920" height="2132" viewBox="0 0 1920 2132" fill="none" xmlns="http://www.w3.org/2000/svg">
<g opacity="0.05">
<rect x="0.25" y="0.25" width="79.5" height="79.5" stroke="#E6E6E6" stroke-width="0.5"/>
<rect x="80.25" y="0.25" width="79.5" height="79.5" stroke="#E6E6E6" stroke-width="0.5"/>
<rect x="160" width="80" height="80" fill="url(#paint0_linear_27_940)" fill-opacity="0.76"/>
<rect x="240.25" y="0.25" width="79.5" height="79.5" stroke="#E6E6E6" stroke-width="0.5"/>
<rect x="320.25" y="0.25" width="79.5" height="79.5" stroke="#E6E6E6" stroke-width="0.5"/>
<rect x="400.25" y="0.25" width="79.5" height="79.5" stroke="#E6E6E6" stroke-width="0.5"/>
<rect x="480.25" y="0.25" width="79.5" height="79.5" stroke="#E6E6E6" stroke-width="0.5"/>
<rect x="560.25" y="0.25" width="79.5" height="79.5" stroke="#E6E6E6" stroke-width="0.5"/>
<rect x="640.25" y="0.25" width="79.5" height="79.5" stroke="#E6E6E6" stroke-width="0.5"/>
<rect x="720.25" y="0.25" width="79.5" height="79.5" stroke="#E6E6E6" stroke-width="0.5"/>
<rect x="800.25" y="0.25" width="79.5" height="79.5" stroke="#E6E6E6" stroke-width="0.5"/>
<rect x="880.25" y="0.25" width="79.5" height="79.5" stroke="#E6E6E6" stroke-width="0.5"/>
<rect x="960.25" y="0.25" width="79.5" height="79.5" stroke="#E6E6E6" stroke-width="0.5"/>
<rect x="1040.25" y="0.25" width="79.5" height="79.5" stroke="#E6E6E6" stroke-width="0.5"/>
<rect x="1120.25" y="0.25" width="79.5" height="79.5" stroke="#E6E6E6" stroke-width="0.5"/>
<rect x="1200.25" y="0.25" width="79.5" height="79.5" stroke="#E6E6E6" stroke-width="0.5"/>
<rect x="1280.25" y="0.25" width="79.5" height="79.5" stroke="#E6E6E6" stroke-width="0.5"/>
<rect x="1360.25" y="0.25" width="79.5" height="79.5" stroke="#E6E6E6" stroke-width="0.5"/>
<rect x="1440.25" y="0.25" width="79.5" height="79.5" stroke="#E6E6E6" stroke-width="0.5"/>
<rect x="1520.25" y="0.25" width="79.5" height="79.5" stroke="#E6E6E6" stroke-width="0.5"/>
<rect x="1600.25" y="0.25" width="79.5" height="79.5" stroke="#E6E6E6" stroke-width="0.5"/>
<rect x="1680.25" y="0.25" width="79.5" height="79.5" stroke="#E6E6E6" stroke-width="0.5"/>
<rect x="1760.25" y="0.25" width="79.5" height="79.5" stroke="#E6E6E6" stroke-width="0.5"/>
<rect x="1840.25" y="0.25" width="79.5" height="79.5" stroke="#E6E6E6" stroke-width="0.5"/>
<rect x="0.25" y="80.25" width="79.5" height="79.5" stroke="#E6E6E6" stroke-width="0.5"/>
<rect x="80.25" y="80.25" width="79.5" height="79.5" stroke="#E6E6E6" stroke-width="0.5"/>
<rect x="160.25" y="80.25" width="79.5" height="79.5" stroke="#E6E6E6" stroke-width="0.5"/>
<rect x="240.25" y="80.25" width="79.5" height="79.5" stroke="#E6E6E6" stroke-width="0.5"/>
<rect x="320.25" y="80.25" width="79.5" height="79.5" stroke="#E6E6E6" stroke-width="0.5"/>
<rect x="400" y="80" width="80" height="80" fill="url(#paint1_linear_27_940)" fill-opacity="0.76"/>
<rect x="480.25" y="80.25" width="79.5" height="79.5" stroke="#E6E6E6" stroke-width="0.5"/>
<rect x="560.25" y="80.25" width="79.5" height="79.5" stroke="#E6E6E6" stroke-width="0.5"/>
<rect x="640.25" y="80.25" width="79.5" height="79.5" stroke="#E6E6E6" stroke-width="0.5"/>
<rect x="720.25" y="80.25" width="79.5" height="79.5" stroke="#E6E6E6" stroke-width="0.5"/>
<rect x="800.25" y="80.25" width="79.5" height="79.5" stroke="#E6E6E6" stroke-width="0.5"/>
<rect x="880.25" y="80.25" width="79.5" height="79.5" stroke="#E6E6E6" stroke-width="0.5"/>
<rect x="960.25" y="80.25" width="79.5" height="79.5" stroke="#E6E6E6" stroke-width="0.5"/>
<rect x="1040.25" y="80.25" width="79.5" height="79.5" stroke="#E6E6E6" stroke-width="0.5"/>
<rect x="1120" y="80" width="80" height="80" fill="url(#paint2_linear_27_940)" fill-opacity="0.76"/>
<rect x="1200.25" y="80.25" width="79.5" height="79.5" stroke="#E6E6E6" stroke-width="0.5"/>
<rect x="1280.25" y="80.25" width="79.5" height="79.5" stroke="#E6E6E6" stroke-width="0.5"/>
<rect x="1360.25" y="80.25" width="79.5" height="79.5" stroke="#E6E6E6" stroke-width="0.5"/>
<rect x="1440.25" y="80.25" width="79.5" height="79.5" stroke="#E6E6E6" stroke-width="0.5"/>
<rect x="1520.25" y="80.25" width="79.5" height="79.5" stroke="#E6E6E6" stroke-width="0.5"/>
<rect x="1600.25" y="80.25" width="79.5" height="79.5" stroke="#E6E6E6" stroke-width="0.5"/>
<rect x="1680.25" y="80.25" width="79.5" height="79.5" stroke="#E6E6E6" stroke-width="0.5"/>
<rect x="1760.25" y="80.25" width="79.5" height="79.5" stroke="#E6E6E6" stroke-width="0.5"/>
<rect x="1840.25" y="80.25" width="79.5" height="79.5" stroke="#E6E6E6" stroke-width="0.5"/>
<rect x="0.25" y="160.25" width="79.5" height="79.5" stroke="#E6E6E6" stroke-width="0.5"/>
<rect x="80.25" y="160.25" width="79.5" height="79.5" stroke="#E6E6E6" stroke-width="0.5"/>
<rect x="160.25" y="160.25" width="79.5" height="79.5" stroke="#E6E6E6" stroke-width="0.5"/>
<rect x="240.25" y="160.25" width="79.5" height="79.5" stroke="#E6E6E6" stroke-width="0.5"/>
<rect x="320.25" y="160.25" width="79.5" height="79.5" stroke="#E6E6E6" stroke-width="0.5"/>
<rect x="400.25" y="160.25" width="79.5" height="79.5" stroke="#E6E6E6" stroke-width="0.5"/>
<rect x="480.25" y="160.25" width="79.5" height="79.5" stroke="#E6E6E6" stroke-width="0.5"/>
<rect x="560.25" y="160.25" width="79.5" height="79.5" stroke="#E6E6E6" stroke-width="0.5"/>
<rect x="640.25" y="160.25" width="79.5" height="79.5" stroke="#E6E6E6" stroke-width="0.5"/>
<rect x="720.25" y="160.25" width="79.5" height="79.5" stroke="#E6E6E6" stroke-width="0.5"/>
<rect x="800.25" y="160.25" width="79.5" height="79.5" stroke="#E6E6E6" stroke-width="0.5"/>
<rect x="880.25" y="160.25" width="79.5" height="79.5" stroke="#E6E6E6" stroke-width="0.5"/>
<rect x="960.25" y="160.25" width="79.5" height="79.5" stroke="#E6E6E6" stroke-width="0.5"/>
<rect x="1040.25" y="160.25" width="79.5" height="79.5" stroke="#E6E6E6" stroke-width="0.5"/>
<rect x="1120.25" y="160.25" width="79.5" height="79.5" stroke="#E6E6E6" stroke-width="0.5"/>
<rect x="1200.25" y="160.25" width="79.5" height="79.5" stroke="#E6E6E6" stroke-width="0.5"/>
<rect x="1280.25" y="160.25" width="79.5" height="79.5" stroke="#E6E6E6" stroke-width="0.5"/>
<rect x="1360.25" y="160.25" width="79.5" height="79.5" stroke="#E6E6E6" stroke-width="0.5"/>
<rect x="1440.25" y="160.25" width="79.5" height="79.5" stroke="#E6E6E6" stroke-width="0.5"/>
<rect x="1520.25" y="160.25" width="79.5" height="79.5" stroke="#E6E6E6" stroke-width="0.5"/>
<rect x="1600.25" y="160.25" width="79.5" height="79.5" stroke="#E6E6E6" stroke-width="0.5"/>
<rect x="1680.25" y="160.25" width="79.5" height="79.5" stroke="#E6E6E6" stroke-width="0.5"/>
<rect x="1760.25" y="160.25" width="79.5" height="79.5" stroke="#E6E6E6" stroke-width="0.5"/>
<rect x="1840.25" y="160.25" width="79.5" height="79.5" stroke="#E6E6E6" stroke-width="0.5"/>
<rect x="0.25" y="240.25" width="79.5" height="79.5" stroke="#E6E6E6" stroke-width="0.5"/>
<rect x="80.25" y="240.25" width="79.5" height="79.5" stroke="#E6E6E6" stroke-width="0.5"/>
<rect x="160.25" y="240.25" width="79.5" height="79.5" stroke="#E6E6E6" stroke-width="0.5"/>
<rect x="240.25" y="240.25" width="79.5" height="79.5" stroke="#E6E6E6" stroke-width="0.5"/>
<rect x="320.25" y="240.25" width="79.5" height="79.5" stroke="#E6E6E6" stroke-width="0.5"/>
<rect x="400.25" y="240.25" width="79.5" height="79.5" stroke="#E6E6E6" stroke-width="0.5"/>
<rect x="480.25" y="240.25" width="79.5" height="79.5" stroke="#E6E6E6" stroke-width="0.5"/>
<rect x="560.25" y="240.25" width="79.5" height="79.5" stroke="#E6E6E6" stroke-width="0.5"/>
<rect x="640.25" y="240.25" width="79.5" height="79.5" stroke="#E6E6E6" stroke-width="0.5"/>
<rect x="720.25" y="240.25" width="79.5" height="79.5" stroke="#E6E6E6" stroke-width="0.5"/>
<rect x="800.25" y="240.25" width="79.5" height="79.5" stroke="#E6E6E6" stroke-width="0.5"/>
<rect x="880.25" y="240.25" width="79.5" height="79.5" stroke="#E6E6E6" stroke-width="0.5"/>
<rect x="960.25" y="240.25" width="79.5" height="79.5" stroke="#E6E6E6" stroke-width="0.5"/>
<rect x="1040.25" y="240.25" width="79.5" height="79.5" stroke="#E6E6E6" stroke-width="0.5"/>
<rect x="1120.25" y="240.25" width="79.5" height="79.5" stroke="#E6E6E6" stroke-width="0.5"/>
<rect x="1200.25" y="240.25" width="79.5" height="79.5" stroke="#E6E6E6" stroke-width="0.5"/>
<rect x="1280.25" y="240.25" width="79.5" height="79.5" stroke="#E6E6E6" stroke-width="0.5"/>
<rect x="1360.25" y="240.25" width="79.5" height="79.5" stroke="#E6E6E6" stroke-width="0.5"/>
<rect x="1440.25" y="240.25" width="79.5" height="79.5" stroke="#E6E6E6" stroke-width="0.5"/>
<rect x="1520.25" y="240.25" width="79.5" height="79.5" stroke="#E6E6E6" stroke-width="0.5"/>
<rect x="1600.25" y="240.25" width="79.5" height="79.5" stroke="#E6E6E6" stroke-width="0.5"/>
<rect x="1680.25" y="240.25" width="79.5" height="79.5" stroke="#E6E6E6" stroke-width="0.5"/>
<rect x="1760.25" y="240.25" width="79.5" height="79.5" stroke="#E6E6E6" stroke-width="0.5"/>
<rect x="1840.25" y="240.25" width="79.5" height="79.5" stroke="#E6E6E6" stroke-width="0.5"/>
<rect x="0.25" y="320.25" width="79.5" height="79.5" stroke="#E6E6E6" stroke-width="0.5"/>
<rect x="80.25" y="320.25" width="79.5" height="79.5" stroke="#E6E6E6" stroke-width="0.5"/>
<rect x="160.25" y="320.25" width="79.5" height="79.5" stroke="#E6E6E6" stroke-width="0.5"/>
<rect x="240.25" y="320.25" width="79.5" height="79.5" stroke="#E6E6E6" stroke-width="0.5"/>
<rect x="320.25" y="320.25" width="79.5" height="79.5" stroke="#E6E6E6" stroke-width="0.5"/>
<rect x="400.25" y="320.25" width="79.5" height="79.5" stroke="#E6E6E6" stroke-width="0.5"/>
<rect x="480.25" y="320.25" width="79.5" height="79.5" stroke="#E6E6E6" stroke-width="0.5"/>
<rect x="560.25" y="320.25" width="79.5" height="79.5" stroke="#E6E6E6" stroke-width="0.5"/>
<rect x="640.25" y="320.25" width="79.5" height="79.5" stroke="#E6E6E6" stroke-width="0.5"/>
<rect x="720.25" y="320.25" width="79.5" height="79.5" stroke="#E6E6E6" stroke-width="0.5"/>
<rect x="800.25" y="320.25" width="79.5" height="79.5" stroke="#E6E6E6" stroke-width="0.5"/>
<rect x="880.25" y="320.25" width="79.5" height="79.5" stroke="#E6E6E6" stroke-width="0.5"/>
<rect x="960.25" y="320.25" width="79.5" height="79.5" stroke="#E6E6E6" stroke-width="0.5"/>
<rect x="1040.25" y="320.25" width="79.5" height="79.5" stroke="#E6E6E6" stroke-width="0.5"/>
<rect x="1120.25" y="320.25" width="79.5" height="79.5" stroke="#E6E6E6" stroke-width="0.5"/>
<rect x="1200.25" y="320.25" width="79.5" height="79.5" stroke="#E6E6E6" stroke-width="0.5"/>
<rect x="1280.25" y="320.25" width="79.5" height="79.5" stroke="#E6E6E6" stroke-width="0.5"/>
<rect x="1360.25" y="320.25" width="79.5" height="79.5" stroke="#E6E6E6" stroke-width="0.5"/>
<rect x="1440.25" y="320.25" width="79.5" height="79.5" stroke="#E6E6E6" stroke-width="0.5"/>
<rect x="1520.25" y="320.25" width="79.5" height="79.5" stroke="#E6E6E6" stroke-width="0.5"/>
<rect x="1600.25" y="320.25" width="79.5" height="79.5" stroke="#E6E6E6" stroke-width="0.5"/>
<rect x="1680.25" y="320.25" width="79.5" height="79.5" stroke="#E6E6E6" stroke-width="0.5"/>
<rect x="1760.25" y="320.25" width="79.5" height="79.5" stroke="#E6E6E6" stroke-width="0.5"/>
<rect x="1840.25" y="320.25" width="79.5" height="79.5" stroke="#E6E6E6" stroke-width="0.5"/>
<rect x="0.25" y="400.25" width="79.5" height="79.5" stroke="#E6E6E6" stroke-width="0.5"/>
<rect x="80.25" y="400.25" width="79.5" height="79.5" stroke="#E6E6E6" stroke-width="0.5"/>
<rect x="160.25" y="400.25" width="79.5" height="79.5" stroke="#E6E6E6" stroke-width="0.5"/>
<rect x="240.25" y="400.25" width="79.5" height="79.5" stroke="#E6E6E6" stroke-width="0.5"/>
<rect x="320.25" y="400.25" width="79.5" height="79.5" stroke="#E6E6E6" stroke-width="0.5"/>
<rect x="400.25" y="400.25" width="79.5" height="79.5" stroke="#E6E6E6" stroke-width="0.5"/>
<rect x="480.25" y="400.25" width="79.5" height="79.5" stroke="#E6E6E6" stroke-width="0.5"/>
<rect x="560.25" y="400.25" width="79.5" height="79.5" stroke="#E6E6E6" stroke-width="0.5"/>
<rect x="640.25" y="400.25" width="79.5" height="79.5" stroke="#E6E6E6" stroke-width="0.5"/>
<rect x="720.25" y="400.25" width="79.5" height="79.5" stroke="#E6E6E6" stroke-width="0.5"/>
<rect x="800.25" y="400.25" width="79.5" height="79.5" stroke="#E6E6E6" stroke-width="0.5"/>
<rect x="880.25" y="400.25" width="79.5" height="79.5" stroke="#E6E6E6" stroke-width="0.5"/>
<rect x="960.25" y="400.25" width="79.5" height="79.5" stroke="#E6E6E6" stroke-width="0.5"/>
<rect x="1040.25" y="400.25" width="79.5" height="79.5" stroke="#E6E6E6" stroke-width="0.5"/>
<rect x="1120.25" y="400.25" width="79.5" height="79.5" stroke="#E6E6E6" stroke-width="0.5"/>
<rect x="1200.25" y="400.25" width="79.5" height="79.5" stroke="#E6E6E6" stroke-width="0.5"/>
<rect x="1280.25" y="400.25" width="79.5" height="79.5" stroke="#E6E6E6" stroke-width="0.5"/>
<rect x="1360.25" y="400.25" width="79.5" height="79.5" stroke="#E6E6E6" stroke-width="0.5"/>
<rect x="1440.25" y="400.25" width="79.5" height="79.5" stroke="#E6E6E6" stroke-width="0.5"/>
<rect x="1520.25" y="400.25" width="79.5" height="79.5" stroke="#E6E6E6" stroke-width="0.5"/>
<rect x="1600.25" y="400.25" width="79.5" height="79.5" stroke="#E6E6E6" stroke-width="0.5"/>
<rect x="1680.25" y="400.25" width="79.5" height="79.5" stroke="#E6E6E6" stroke-width="0.5"/>
<rect x="1760.25" y="400.25" width="79.5" height="79.5" stroke="#E6E6E6" stroke-width="0.5"/>
<rect x="1840.25" y="400.25" width="79.5" height="79.5" stroke="#E6E6E6" stroke-width="0.5"/>
<rect x="0.25" y="480.25" width="79.5" height="79.5" stroke="#E6E6E6" stroke-width="0.5"/>
<rect x="80.25" y="480.25" width="79.5" height="79.5" stroke="#E6E6E6" stroke-width="0.5"/>
<rect x="160.25" y="480.25" width="79.5" height="79.5" stroke="#E6E6E6" stroke-width="0.5"/>
<rect x="240.25" y="480.25" width="79.5" height="79.5" stroke="#E6E6E6" stroke-width="0.5"/>
<rect x="320.25" y="480.25" width="79.5" height="79.5" stroke="#E6E6E6" stroke-width="0.5"/>
<rect x="400.25" y="480.25" width="79.5" height="79.5" stroke="#E6E6E6" stroke-width="0.5"/>
<rect x="480.25" y="480.25" width="79.5" height="79.5" stroke="#E6E6E6" stroke-width="0.5"/>
<rect x="560.25" y="480.25" width="79.5" height="79.5" stroke="#E6E6E6" stroke-width="0.5"/>
<rect x="640.25" y="480.25" width="79.5" height="79.5" stroke="#E6E6E6" stroke-width="0.5"/>
<rect x="720.25" y="480.25" width="79.5" height="79.5" stroke="#E6E6E6" stroke-width="0.5"/>
<rect x="800.25" y="480.25" width="79.5" height="79.5" stroke="#E6E6E6" stroke-width="0.5"/>
<rect x="880.25" y="480.25" width="79.5" height="79.5" stroke="#E6E6E6" stroke-width="0.5"/>
<rect x="960.25" y="480.25" width="79.5" height="79.5" stroke="#E6E6E6" stroke-width="0.5"/>
<rect x="1040.25" y="480.25" width="79.5" height="79.5" stroke="#E6E6E6" stroke-width="0.5"/>
<rect x="1120.25" y="480.25" width="79.5" height="79.5" stroke="#E6E6E6" stroke-width="0.5"/>
<rect x="1200.25" y="480.25" width="79.5" height="79.5" stroke="#E6E6E6" stroke-width="0.5"/>
<rect x="1280.25" y="480.25" width="79.5" height="79.5" stroke="#E6E6E6" stroke-width="0.5"/>
<rect x="1360.25" y="480.25" width="79.5" height="79.5" stroke="#E6E6E6" stroke-width="0.5"/>
<rect x="1440.25" y="480.25" width="79.5" height="79.5" stroke="#E6E6E6" stroke-width="0.5"/>
<rect x="1520.25" y="480.25" width="79.5" height="79.5" stroke="#E6E6E6" stroke-width="0.5"/>
<rect x="1600.25" y="480.25" width="79.5" height="79.5" stroke="#E6E6E6" stroke-width="0.5"/>
<rect x="1680.25" y="480.25" width="79.5" height="79.5" stroke="#E6E6E6" stroke-width="0.5"/>
<rect x="1760.25" y="480.25" width="79.5" height="79.5" stroke="#E6E6E6" stroke-width="0.5"/>
<rect x="1840.25" y="480.25" width="79.5" height="79.5" stroke="#E6E6E6" stroke-width="0.5"/>
<rect x="0.25" y="560.25" width="79.5" height="79.5" stroke="#E6E6E6" stroke-width="0.5"/>
<rect x="80.25" y="560.25" width="79.5" height="79.5" stroke="#E6E6E6" stroke-width="0.5"/>
<rect x="160.25" y="560.25" width="79.5" height="79.5" stroke="#E6E6E6" stroke-width="0.5"/>
<rect x="240.25" y="560.25" width="79.5" height="79.5" stroke="#E6E6E6" stroke-width="0.5"/>
<rect x="320.25" y="560.25" width="79.5" height="79.5" stroke="#E6E6E6" stroke-width="0.5"/>
<rect x="400.25" y="560.25" width="79.5" height="79.5" stroke="#E6E6E6" stroke-width="0.5"/>
<rect x="480.25" y="560.25" width="79.5" height="79.5" stroke="#E6E6E6" stroke-width="0.5"/>
<rect x="560.25" y="560.25" width="79.5" height="79.5" stroke="#E6E6E6" stroke-width="0.5"/>
<rect x="640.25" y="560.25" width="79.5" height="79.5" stroke="#E6E6E6" stroke-width="0.5"/>
<rect x="720.25" y="560.25" width="79.5" height="79.5" stroke="#E6E6E6" stroke-width="0.5"/>
<rect x="800.25" y="560.25" width="79.5" height="79.5" stroke="#E6E6E6" stroke-width="0.5"/>
<rect x="880.25" y="560.25" width="79.5" height="79.5" stroke="#E6E6E6" stroke-width="0.5"/>
<rect x="960.25" y="560.25" width="79.5" height="79.5" stroke="#E6E6E6" stroke-width="0.5"/>
<rect x="1040.25" y="560.25" width="79.5" height="79.5" stroke="#E6E6E6" stroke-width="0.5"/>
<rect x="1120.25" y="560.25" width="79.5" height="79.5" stroke="#E6E6E6" stroke-width="0.5"/>
<rect x="1200.25" y="560.25" width="79.5" height="79.5" stroke="#E6E6E6" stroke-width="0.5"/>
<rect x="1280.25" y="560.25" width="79.5" height="79.5" stroke="#E6E6E6" stroke-width="0.5"/>
<rect x="1360.25" y="560.25" width="79.5" height="79.5" stroke="#E6E6E6" stroke-width="0.5"/>
<rect x="1440.25" y="560.25" width="79.5" height="79.5" stroke="#E6E6E6" stroke-width="0.5"/>
<rect x="1520.25" y="560.25" width="79.5" height="79.5" stroke="#E6E6E6" stroke-width="0.5"/>
<rect x="1600.25" y="560.25" width="79.5" height="79.5" stroke="#E6E6E6" stroke-width="0.5"/>
<rect x="1680.25" y="560.25" width="79.5" height="79.5" stroke="#E6E6E6" stroke-width="0.5"/>
<rect x="1760.25" y="560.25" width="79.5" height="79.5" stroke="#E6E6E6" stroke-width="0.5"/>
<rect x="1840.25" y="560.25" width="79.5" height="79.5" stroke="#E6E6E6" stroke-width="0.5"/>
<rect x="0.25" y="640.25" width="79.5" height="79.5" stroke="#E6E6E6" stroke-width="0.5"/>
<rect x="80.25" y="640.25" width="79.5" height="79.5" stroke="#E6E6E6" stroke-width="0.5"/>
<rect x="160.25" y="640.25" width="79.5" height="79.5" stroke="#E6E6E6" stroke-width="0.5"/>
<rect x="240.25" y="640.25" width="79.5" height="79.5" stroke="#E6E6E6" stroke-width="0.5"/>
<rect x="320.25" y="640.25" width="79.5" height="79.5" stroke="#E6E6E6" stroke-width="0.5"/>
<rect x="400.25" y="640.25" width="79.5" height="79.5" stroke="#E6E6E6" stroke-width="0.5"/>
</g>
<defs>
<linearGradient id="paint0_linear_27_940" x1="200" y1="0" x2="200" y2="80" gradientUnits="userSpaceOnUse">
<stop stop-color="#E6E6E6"/>
<stop offset="1" stop-color="#E6E6E6" stop-opacity="0"/>
<stop offset="1" stop-color="#E6E6E6" stop-opacity="0.5"/>
</linearGradient>
<linearGradient id="paint1_linear_27_940" x1="440" y1="80" x2="440" y2="160" gradientUnits="userSpaceOnUse">
<stop stop-color="#E6E6E6"/>
<stop offset="1" stop-color="#E6E6E6" stop-opacity="0"/>
<stop offset="1" stop-color="#E6E6E6" stop-opacity="0.5"/>
</linearGradient>
<linearGradient id="paint2_linear_27_940" x1="1160" y1="80" x2="1160" y2="160" gradientUnits="userSpaceOnUse">
<stop stop-color="#E6E6E6"/>
<stop offset="1" stop-color="#E6E6E6" stop-opacity="0"/>
<stop offset="1" stop-color="#E6E6E6" stop-opacity="0.5"/>
</linearGradient>
</defs>
</svg>
