<svg width="102" height="25" viewBox="0 0 102 25" fill="none" xmlns="http://www.w3.org/2000/svg">
<path d="M0.24 24V0.959999H9.968C10.192 0.959999 10.4907 0.970666 10.864 0.991999C11.248 1.00267 11.5893 1.03467 11.888 1.088C13.264 1.30133 14.3893 1.75467 15.264 2.448C16.1493 3.14133 16.8 4.016 17.216 5.072C17.632 6.11733 17.84 7.28533 17.84 8.576C17.84 10.5067 17.36 12.16 16.4 13.536C15.44 14.9013 13.936 15.744 11.888 16.064L9.968 16.192H4.592V24H0.24ZM13.232 24L8.688 14.624L13.168 13.76L18.16 24H13.232ZM4.592 12.128H9.776C10 12.128 10.2453 12.1173 10.512 12.096C10.7787 12.0747 11.024 12.032 11.248 11.968C11.8347 11.808 12.288 11.5413 12.608 11.168C12.928 10.784 13.1467 10.3627 13.264 9.904C13.392 9.43467 13.456 8.992 13.456 8.576C13.456 8.16 13.392 7.72267 13.264 7.264C13.1467 6.79467 12.928 6.37333 12.608 6C12.288 5.616 11.8347 5.344 11.248 5.184C11.024 5.12 10.7787 5.07733 10.512 5.056C10.2453 5.03467 10 5.024 9.776 5.024H4.592V12.128ZM31.0535 24.48C29.1975 24.48 27.5655 24.1067 26.1575 23.36C24.7495 22.6027 23.6508 21.5413 22.8615 20.176C22.0722 18.8107 21.6775 17.2053 21.6775 15.36V0.991999L26.0935 0.959999V15.328C26.0935 16.0853 26.2215 16.7733 26.4775 17.392C26.7335 18.0107 27.0855 18.544 27.5335 18.992C27.9922 19.44 28.5202 19.7867 29.1175 20.032C29.7255 20.2667 30.3708 20.384 31.0535 20.384C31.7575 20.384 32.4082 20.2613 33.0055 20.016C33.6135 19.7707 34.1415 19.424 34.5895 18.976C35.0375 18.528 35.3842 17.9947 35.6295 17.376C35.8855 16.7573 36.0135 16.0747 36.0135 15.328V0.959999H40.4295V15.36C40.4295 17.2053 40.0348 18.8107 39.2455 20.176C38.4562 21.5413 37.3575 22.6027 35.9495 23.36C34.5415 24.1067 32.9095 24.48 31.0535 24.48ZM44.8963 24V0.959999H54.1123C55.7549 0.959999 57.0829 1.29067 58.0963 1.952C59.1096 2.60267 59.8509 3.424 60.3203 4.416C60.7896 5.408 61.0243 6.41067 61.0243 7.424C61.0243 8.71467 60.7309 9.78667 60.1443 10.64C59.5683 11.4933 58.7736 12.064 57.7603 12.352V11.552C59.2003 11.8507 60.2776 12.5173 60.9923 13.552C61.7176 14.5867 62.0803 15.744 62.0803 17.024C62.0803 18.4 61.8243 19.6107 61.3123 20.656C60.8109 21.7013 60.0429 22.5227 59.0083 23.12C57.9736 23.7067 56.6723 24 55.1043 24H44.8963ZM49.3123 19.904H54.6563C55.2429 19.904 55.7656 19.7813 56.2243 19.536C56.6829 19.28 57.0403 18.928 57.2963 18.48C57.5629 18.0213 57.6963 17.4827 57.6963 16.864C57.6963 16.32 57.5843 15.8347 57.3603 15.408C57.1363 14.9813 56.7949 14.6453 56.3363 14.4C55.8883 14.144 55.3283 14.016 54.6563 14.016H49.3123V19.904ZM49.3123 9.952H54.0483C54.5389 9.952 54.9763 9.86667 55.3603 9.696C55.7443 9.52533 56.0483 9.264 56.2723 8.912C56.4963 8.54933 56.6083 8.08533 56.6083 7.52C56.6083 6.816 56.3896 6.224 55.9523 5.744C55.5149 5.264 54.8803 5.024 54.0483 5.024H49.3123V9.952ZM65.5913 24V0.959999H69.9433V19.936H79.8633V24H65.5913ZM80.6638 24L88.4078 12.352L80.8878 0.959999H86.2318L91.1278 8.64L95.9598 0.959999H101.336L93.8158 12.352L101.528 24H96.1838L91.1278 16.064L86.0398 24H80.6638Z" fill="white"/>
</svg>
