<svg width="25" height="24" viewBox="0 0 25 24" fill="none" xmlns="http://www.w3.org/2000/svg">
<path d="M9.76318 1.18209L9.40626 0.958253C8.70771 0.529948 7.83581 0.281124 7.08628 0.514652C6.28066 0.765516 5.6382 1.38605 5.30167 2.31812L4.82238 2.07133C3.99637 1.64609 3.56398 1.63946 3.20553 1.80058C2.91949 1.92857 2.6212 2.23654 2.28315 2.68626L6.48461 5.93474C7.14236 6.14889 8.10605 6.14379 9.06973 5.89395C10.0385 5.6441 11.0022 5.15461 11.7058 4.49686L13.2916 0.575838C11.8945 -0.528065 10.6198 0.111332 9.76318 1.18209ZM12.4707 5.08323C11.6039 5.96023 10.3139 6.5517 9.30938 6.81684C8.95756 6.90862 8.60574 6.97491 8.26411 7.0106C8.07545 7.32163 7.91739 7.63776 7.79502 7.95389C8.03976 9.19801 8.49866 10.2178 9.18701 11.054L8.45277 11.6659C8.02956 11.156 7.65225 10.6053 7.36671 9.99343C7.32082 11.1764 7.58596 12.4001 8.01937 13.6748L7.11687 13.9807C6.32145 11.6557 6.05121 9.27449 7.16786 7.031C6.79054 7.0004 6.43362 6.92902 6.1022 6.81174L6.0869 6.80664C5.86765 7.0157 5.6586 7.23495 5.45974 7.4644C3.85003 9.33058 2.96334 11.8137 3.42733 13.7462C3.67565 14.7813 4.12078 15.7602 4.7612 16.5965C5.69939 16.5761 6.58659 16.5965 7.39221 16.9024C7.77462 16.8616 8.16723 16.8361 8.57514 16.8361C10.0283 16.8361 11.3438 17.1063 12.3381 17.5754C12.7256 17.759 13.0774 17.9782 13.3579 18.2281C13.3579 17.9579 13.3987 17.6672 13.4802 17.4531C13.0264 17.0248 12.7409 16.5047 12.7409 15.9132C12.7409 15.0923 13.2865 14.4141 14.0768 13.9247C14.0768 13.6901 14.1227 13.4658 14.2043 13.2516C13.6893 12.808 13.3579 12.2573 13.3579 11.6149C13.3579 11.2121 13.4904 10.8449 13.7148 10.5135C13.4904 10.1872 13.3579 9.82007 13.3579 9.41726C13.3579 9.21841 13.3885 9.03485 13.4446 8.85639C12.95 8.41788 12.6389 7.87741 12.6389 7.25534C12.6389 6.63838 12.9449 6.103 13.4344 5.6696C13.1335 5.43505 12.8123 5.2362 12.4707 5.08323ZM18.1508 5.2005C16.8251 5.2005 15.6269 5.48094 14.806 5.89395C13.9799 6.30696 13.5924 6.81684 13.5924 7.25534C13.5924 7.69895 13.9799 8.20883 14.806 8.62184C15.6269 9.03485 16.8251 9.31528 18.1508 9.31528C18.727 9.31528 19.2726 9.2592 19.7773 9.16742V8.30061C20.4861 8.19353 21.0724 7.99978 21.4498 7.74993V8.64733C22.0871 8.46377 22.699 7.78563 22.7143 7.25534C22.7143 6.81684 22.3268 6.30696 21.5008 5.89395C20.6747 5.48094 19.4816 5.2005 18.1508 5.2005ZM23.0712 8.65243C22.9029 8.83089 22.7041 8.99916 22.4797 9.15212L22.4899 10.6308C23.1324 10.2484 23.4332 9.80477 23.4332 9.41726C23.4332 9.17252 23.3159 8.90738 23.0712 8.65243ZM14.3114 9.43766C14.3267 9.87616 14.7142 10.3707 15.5249 10.7787C16.3509 11.1968 17.544 11.4721 18.8748 11.4721C19.706 11.4721 20.4861 11.3599 21.154 11.1764L21.1897 9.78948C20.3127 10.0954 19.2726 10.2637 18.1508 10.2637C16.6976 10.2637 15.377 9.97304 14.3776 9.47335C14.3522 9.46315 14.3318 9.44785 14.3114 9.43766ZM14.4133 11.2121C14.342 11.3497 14.3114 11.4874 14.3114 11.6149C14.3114 12.0585 14.6989 12.5684 15.5249 12.9814C16.3509 13.3944 17.544 13.6697 18.8748 13.6697C19.5479 13.6697 20.1852 13.6034 20.7614 13.476V12.2522C20.17 12.3644 19.5377 12.4205 18.8748 12.4205C17.4166 12.4205 16.096 12.135 15.0966 11.6302C14.8467 11.5078 14.6173 11.365 14.4133 11.2121ZM23.3312 11.2121C23.0202 11.4313 22.75 11.5945 22.4338 11.7321V12.8692C23.112 12.4766 23.4332 12.0177 23.4332 11.6149C23.4332 11.4874 23.4026 11.3497 23.3312 11.2121ZM23.7137 13.0884C23.6117 13.1904 23.4995 13.2873 23.3771 13.3842V15.0362C23.9023 14.6793 24.1573 14.2867 24.1573 13.9298C24.1573 13.6595 24.0094 13.3689 23.7137 13.0884ZM15.0405 13.8023C15.0354 13.8482 15.0303 13.889 15.0303 13.9298C15.0303 14.3734 15.4178 14.8781 16.2438 15.2911C17.0698 15.7093 18.2681 15.9846 19.5938 15.9846C20.3535 15.9846 21.0775 15.8928 21.7047 15.7398V14.2153C20.8736 14.4804 19.9099 14.6232 18.8748 14.6232C17.4166 14.6232 16.096 14.3326 15.0966 13.8329C15.0762 13.8227 15.0609 13.8125 15.0405 13.8023ZM14.3471 14.8934C13.9035 15.2249 13.6944 15.5869 13.6944 15.9132C13.6944 16.3568 14.0819 16.8616 14.9079 17.2797C15.7339 17.6927 16.9271 17.9681 18.2579 17.9681C18.7423 17.9681 19.2114 17.9324 19.6499 17.8661V16.9381H19.5938C18.1355 16.9381 16.8149 16.6474 15.8155 16.1427C15.1782 15.8265 14.6479 15.4033 14.3471 14.8934ZM22.6327 16.4537C22.2299 16.5965 21.7914 16.7137 21.3223 16.7902V17.4072C21.4192 17.3664 21.5161 17.3256 21.6078 17.2797C22.1075 17.0248 22.444 16.7392 22.6327 16.4537ZM23.1018 17.3817C22.908 17.5754 22.6837 17.7488 22.4338 17.9069V19.3651C23.112 18.9776 23.4332 18.5187 23.4332 18.1159C23.4332 17.8814 23.3261 17.6264 23.1018 17.3817ZM5.32207 17.5244C4.80199 17.5295 4.24111 17.5958 3.65984 17.7335C2.49679 18.0037 1.49691 18.4983 0.844252 19.0439C0.191597 19.5844 -0.0633456 20.1351 0.0131373 20.5277C0.0896202 20.9203 0.49243 21.2823 1.27765 21.4914C2.06033 21.6953 3.15506 21.7055 4.3176 21.4353C4.78669 21.3231 5.22519 21.1803 5.628 21.0121V19.9566C6.37244 19.6252 6.92821 19.2275 7.17806 18.84V20.0841C7.79502 19.5538 8.03466 19.0235 7.96328 18.636C7.8919 18.2434 7.48399 17.8814 6.69876 17.6774C6.30615 17.5754 5.83706 17.5193 5.32207 17.5244ZM8.61593 17.7896C8.7536 17.9884 8.85048 18.2128 8.90147 18.4626C8.95756 18.7686 8.93206 19.0643 8.84028 19.3549C9.34507 19.4875 9.80397 19.666 10.2017 19.8903C10.426 20.0127 10.6351 20.1606 10.8186 20.3135C11.2775 20.2064 11.6651 20.0535 11.9404 19.8699V20.9203C12.7613 20.5328 13.1386 20.0586 13.1386 19.6813C13.1386 19.2989 12.7613 18.8247 11.9353 18.4371C11.1144 18.0547 9.93144 17.7947 8.61593 17.7896ZM14.3165 18.0445C14.3114 18.0649 14.3114 18.0904 14.3114 18.1159C14.3114 18.5595 14.6989 19.0643 15.5249 19.4824C16.3509 19.8954 17.544 20.1708 18.8748 20.1708C19.5479 20.1708 20.1852 20.0994 20.7614 19.977V18.6054C20.0068 18.8094 19.1553 18.9215 18.2579 18.9215C16.7996 18.9215 15.479 18.6309 14.4796 18.1312C14.4235 18.1006 14.3674 18.07 14.3165 18.0445ZM14.4592 19.9464C14.3573 20.1147 14.3114 20.2778 14.3114 20.4359C14.3114 20.8795 14.6989 21.3843 15.5249 21.8024C16.3509 22.2154 17.544 22.4907 18.8748 22.4907C19.5479 22.4907 20.1852 22.4194 20.7614 22.297V20.9509C20.17 21.0631 19.5377 21.1242 18.8748 21.1242C17.4166 21.1242 16.096 20.8336 15.0966 20.3288C14.8671 20.2166 14.653 20.0892 14.4592 19.9464ZM23.2854 19.9464C22.9896 20.1453 22.7296 20.3033 22.4338 20.4308V21.6851C23.112 21.2976 23.4332 20.8387 23.4332 20.4359C23.4332 20.2778 23.3873 20.1147 23.2854 19.9464ZM8.36609 20.2217C8.18763 20.4461 7.97858 20.6602 7.74403 20.854C6.94861 21.522 5.82686 22.0624 4.53175 22.3633C4.06979 22.4703 3.61089 22.5366 3.17035 22.5723C3.33351 22.8426 3.62058 23.1077 4.04073 23.3422C4.7357 23.7349 5.75547 24 6.88742 24C7.40241 24 7.8919 23.9439 8.3406 23.847V22.7865C9.04424 22.6794 9.63571 22.4856 10.013 22.2358V23.174C10.5229 22.8171 10.7677 22.4143 10.7677 22.0318C10.7677 21.5882 10.4362 21.114 9.73768 20.7214C9.36037 20.5124 8.89127 20.339 8.36609 20.2217Z" fill="#979797"/>
</svg>
