<svg width="93" height="30" viewBox="0 0 93 30" fill="none" xmlns="http://www.w3.org/2000/svg">
<path d="M0 6.53009L3.56133 13.0238V16.9848L0.00416616 23.4658L0 6.53009Z" fill="#5B57A2"/>
<path d="M13.6741 10.6608L17.0112 8.57428L23.8407 8.56778L13.6741 14.9213V10.6608Z" fill="#D90751"/>
<path d="M13.6555 6.49174L13.6744 15.0892L10.1047 12.8517V0L13.6555 6.49174Z" fill="#FAB718"/>
<path d="M23.8411 8.56774L17.0113 8.57424L13.6555 6.49174L10.1047 0L23.8411 8.56774Z" fill="#ED6F26"/>
<path d="M13.6744 23.5017V19.3305L10.1047 17.1355L10.1067 30L13.6744 23.5017Z" fill="#63B22F"/>
<path d="M17.0028 21.4343L3.56109 13.0238L0 6.53009L23.8263 21.4258L17.0028 21.4343Z" fill="#1487C9"/>
<path d="M10.1069 30L13.6742 23.5017L17.0029 21.4342L23.8264 21.4258L10.1069 30Z" fill="#017F36"/>
<path d="M0.00439453 23.4656L10.1338 17.1356L6.72834 15.0042L3.56156 16.9846L0.00439453 23.4656Z" fill="#984995"/>
<path d="M82.4814 4.48082V15.8861H78.4891V7.88553H74.6451V15.8861H70.6528V4.48004H82.4814V4.48082Z" fill="white"/>
<path fill-rule="evenodd" clip-rule="evenodd" d="M62.4528 16.2938C66.0266 16.2938 68.6805 14.0585 68.6805 10.6697C68.6805 7.38982 66.7224 5.26023 63.4501 5.26023C61.9398 5.26023 60.6937 5.80254 59.7551 6.73827C59.9791 4.80422 61.5824 3.39227 63.3475 3.39227C63.7549 3.39227 66.8219 3.38566 66.8219 3.38566L68.5562 0C68.5562 0 64.7057 0.0894132 62.9158 0.0894132C58.826 0.16211 56.0635 3.95441 56.0635 8.56036C56.0635 13.9263 58.7578 16.2938 62.4528 16.2938ZM62.4745 8.25908C63.8014 8.25908 64.7214 9.14855 64.7214 10.6694C64.7214 12.0382 63.9039 13.1659 62.4745 13.169C61.1071 13.169 60.1872 12.1241 60.1872 10.6927C60.1872 9.17148 61.1071 8.25908 62.4745 8.25908Z" fill="white"/>
<path d="M52.8147 12.0677C52.8147 12.0677 51.8719 12.6221 50.4638 12.727C48.845 12.776 47.4026 11.733 47.4026 9.87979C47.4026 8.07209 48.6754 7.03606 50.423 7.03606C51.4947 7.03606 52.9123 7.79374 52.9123 7.79374C52.9123 7.79374 53.9496 5.85191 54.4869 4.8808C53.503 4.12001 52.1924 3.70288 50.6681 3.70288C46.821 3.70288 43.8413 6.26166 43.8413 9.85686C43.8413 13.4979 46.6419 15.9972 50.6681 15.9218C51.7934 15.879 53.346 15.4759 54.2922 14.8558L52.8147 12.0677Z" fill="white"/>
<path d="M47.4036 23.562C47.2817 23.7206 47.1213 23.8404 46.9288 23.9212C46.7314 24.0032 46.5201 24.045 46.3069 24.0441C46.0949 24.047 45.884 24.0109 45.6846 23.9376C45.5054 23.8712 45.3417 23.7677 45.2036 23.6336C45.0674 23.4992 44.9604 23.3371 44.8896 23.1577C44.813 22.9613 44.7749 22.7514 44.7772 22.54C44.7772 22.3301 44.8126 22.1357 44.8862 21.9514C44.9567 21.7668 45.0592 21.6085 45.1876 21.4756C45.3161 21.3399 45.47 21.2365 45.643 21.1556C45.8195 21.0779 46.0119 21.0359 46.2234 21.0359C46.4513 21.0359 46.6628 21.0651 46.8553 21.123C47.0477 21.1813 47.2112 21.2785 47.3457 21.4146L47.1117 21.8189C46.9986 21.7142 46.8653 21.6348 46.7204 21.5856C46.5826 21.5403 46.4387 21.5175 46.2939 21.518C46.1659 21.518 46.0439 21.5436 45.9254 21.5922C45.8086 21.6402 45.7019 21.7105 45.611 21.7994C45.5181 21.8908 45.4449 22.001 45.3961 22.1229C45.3416 22.2488 45.3161 22.388 45.3161 22.5431C45.3161 22.7017 45.3446 22.844 45.3991 22.9669C45.454 23.0932 45.5276 23.2001 45.6205 23.2903C45.7135 23.3813 45.8225 23.4489 45.9475 23.4944C46.0729 23.543 46.2044 23.5655 46.3454 23.5655C46.5184 23.5655 46.6758 23.5298 46.8103 23.4617C46.9436 23.3961 47.0634 23.305 47.1632 23.1935L47.4036 23.562ZM48.0641 23.9761V21.0973H48.5709V23.2421L50.2191 21.0973H50.7259V23.9764H50.2191V21.8317L48.5709 23.9764L48.0641 23.9761ZM54.0833 23.562C53.9586 23.722 53.7951 23.8458 53.6089 23.9212C53.4113 24.0032 53.1999 24.0449 52.9865 24.0441C52.7746 24.047 52.564 24.0109 52.3646 23.9376C52.1853 23.8712 52.0215 23.7677 51.8833 23.6336C51.747 23.4992 51.64 23.3371 51.5693 23.1577C51.4927 22.9613 51.4545 22.7514 51.4569 22.54C51.4569 22.3301 51.4923 22.1357 51.5659 21.9514C51.6367 21.7668 51.7393 21.6085 51.8673 21.4756C51.9957 21.3399 52.1497 21.2365 52.3227 21.1556C52.5054 21.0736 52.7034 21.0327 52.9031 21.0359C53.131 21.0359 53.3425 21.0651 53.5349 21.123C53.7274 21.1813 53.8909 21.2785 54.0258 21.4146L53.7914 21.8189C53.6784 21.7142 53.5452 21.6347 53.4004 21.5856C53.2626 21.5404 53.1187 21.5175 52.974 21.518C52.7192 21.5188 52.4746 21.6196 52.2907 21.7994C52.1986 21.8915 52.1255 22.0015 52.0758 22.1229C52.0213 22.2488 51.9957 22.388 51.9957 22.5431C51.9957 22.7017 52.0247 22.844 52.0792 22.9669C52.1337 23.0932 52.2072 23.2001 52.3002 23.2903C52.3932 23.3813 52.5026 23.4489 52.6276 23.4944C52.7526 23.5395 52.884 23.5655 53.025 23.5655C53.1984 23.5655 53.3524 23.5298 53.49 23.4617C53.6233 23.3961 53.743 23.305 53.8429 23.1935L54.0833 23.562ZM54.3432 21.0973H56.9437V21.6085H55.8984V23.9761H55.3916V21.6085H54.3463V21.0973H54.3432Z" fill="white"/>
<path fill-rule="evenodd" clip-rule="evenodd" d="M59.3102 23.9473C59.5027 23.8858 59.6662 23.7918 59.8072 23.6627L59.6532 23.2615C59.5602 23.3459 59.4352 23.417 59.2847 23.4753C59.1338 23.5336 58.9638 23.5624 58.7778 23.5624C58.4989 23.5624 58.268 23.4881 58.085 23.3361C57.9025 23.1837 57.803 22.9707 57.7805 22.6986H59.9741C59.9966 22.5983 60.0061 22.4852 60.0061 22.3526C60.0061 22.1551 59.9706 21.9774 59.9001 21.8157C59.8345 21.6587 59.7386 21.5167 59.6181 21.3982C59.496 21.2808 59.352 21.1896 59.1948 21.13C59.0301 21.0648 58.855 21.0318 58.6784 21.0328C58.441 21.0328 58.2325 21.0748 58.05 21.1525C57.8774 21.2266 57.7213 21.3355 57.5911 21.4728C57.4648 21.6094 57.3677 21.7713 57.3061 21.9483C57.2383 22.1367 57.2046 22.3361 57.2066 22.5369C57.2066 22.7635 57.2451 22.9703 57.3156 23.155C57.3842 23.3339 57.4892 23.4959 57.6235 23.6304C57.755 23.7626 57.9151 23.8633 58.1045 23.9344C58.3072 24.0078 58.5212 24.0438 58.7363 24.0409C58.9311 24.0397 59.1247 24.0079 59.3102 23.9473ZM58.0275 21.7314C58.1845 21.586 58.3929 21.5148 58.6559 21.5148C58.9028 21.5148 59.1018 21.5829 59.2462 21.7189C59.3906 21.8546 59.4672 22.0424 59.4802 22.2814H57.7485C57.7731 22.0698 57.8722 21.874 58.0275 21.7314Z" fill="white"/>
<path d="M60.6951 21.0973H61.1569L62.2537 22.524L63.2925 21.0973H63.7415V23.9764H63.235V21.8771L62.2472 23.2129H62.2278L61.2019 21.8767V23.976H60.6951V21.0973Z" fill="white"/>
<path fill-rule="evenodd" clip-rule="evenodd" d="M65.1208 21.107C64.967 21.148 64.8201 21.2122 64.6848 21.2975L64.8194 21.7057C64.9348 21.6474 65.0503 21.5988 65.1658 21.5568C65.2813 21.5144 65.4287 21.495 65.6052 21.495C65.7462 21.495 65.8586 21.5179 65.9451 21.563C66.0316 21.605 66.0956 21.6699 66.1406 21.7477C66.1856 21.8254 66.2145 21.9222 66.2305 22.0353C66.2465 22.1485 66.253 22.2713 66.253 22.4043C66.1493 22.3305 66.0311 22.2808 65.9066 22.2585C65.7862 22.2341 65.6639 22.221 65.5412 22.2196C65.3902 22.2196 65.2492 22.2425 65.1143 22.281C64.9798 22.3199 64.8643 22.3782 64.7714 22.456C64.6764 22.5336 64.5997 22.6319 64.5469 22.7436C64.4904 22.866 64.4619 22.9999 64.4634 23.1351C64.4634 23.4166 64.5438 23.6366 64.7039 23.7921C64.8643 23.9472 65.0758 24.0246 65.3388 24.0246C65.5762 24.0246 65.7656 23.9826 65.9097 23.8986C66.0541 23.8143 66.1696 23.7175 66.253 23.6075V23.9795H66.7275V22.2134C66.7275 21.8378 66.6474 21.5471 66.484 21.343C66.3235 21.1393 66.0381 21.0358 65.6341 21.0358C65.4543 21.0358 65.2843 21.0615 65.1208 21.107ZM65.968 23.4395C65.8525 23.5235 65.7016 23.562 65.5156 23.562C65.3521 23.562 65.2237 23.52 65.1341 23.4391C65.0442 23.3552 64.9992 23.2451 64.9992 23.1091C64.9992 23.0286 65.0153 22.9606 65.0507 22.8991C65.0861 22.8377 65.1342 22.7891 65.1886 22.7503C65.2483 22.7096 65.3144 22.68 65.3841 22.6628C65.4581 22.6433 65.5316 22.6336 65.6086 22.6336C65.859 22.6336 66.0735 22.695 66.25 22.8245V23.1899C66.1668 23.285 66.072 23.3691 65.968 23.4395ZM71.2014 20.0846C71.3039 20.0364 71.4 19.9555 71.4899 19.8358L71.214 19.4315C71.1435 19.5286 71.0635 19.5963 70.9735 19.6321C70.8782 19.6701 70.7794 19.6982 70.6786 19.716L70.5825 19.7335C70.4991 19.7483 70.4095 19.7646 70.3131 19.7809C70.1585 19.8101 70.0078 19.8579 69.8642 19.9232C69.6363 20.0235 69.4538 20.1592 69.3158 20.3306C69.1779 20.5021 69.0689 20.6961 68.9949 20.9099C68.92 21.1265 68.8695 21.3511 68.8444 21.5793C68.8185 21.8126 68.8059 22.0353 68.8059 22.2488C68.8059 22.524 68.841 22.7728 68.9115 22.9959C68.9824 23.2195 69.0814 23.4069 69.2129 23.5589C69.3444 23.7144 69.5018 23.831 69.6877 23.915C69.8737 23.9989 70.0822 24.0409 70.3162 24.0409C70.5311 24.0409 70.73 23.9989 70.9095 23.9212C71.0825 23.8465 71.2395 23.7378 71.3714 23.6012C71.4994 23.4683 71.6023 23.3097 71.6728 23.132C71.7464 22.954 71.7818 22.7631 71.7818 22.5625C71.7818 22.3459 71.7498 22.1488 71.6888 21.9739C71.6327 21.8071 71.5431 21.6541 71.4259 21.5245C71.3084 21.3971 71.1649 21.2976 71.0055 21.2329C70.83 21.1624 70.6427 21.1273 70.4541 21.1295C70.3322 21.1295 70.2136 21.1459 70.0982 21.1781C69.9859 21.2104 69.878 21.2572 69.7773 21.3173C69.6796 21.3744 69.59 21.4451 69.5113 21.5272C69.4343 21.6085 69.3703 21.6991 69.3253 21.8025H69.3124C69.3223 21.6699 69.3383 21.5342 69.3669 21.3951C69.3958 21.2559 69.4374 21.1229 69.4922 20.997C69.5467 20.871 69.6172 20.7575 69.7038 20.6541C69.7965 20.5497 69.9102 20.467 70.0372 20.4115C70.1768 20.3437 70.3245 20.2948 70.4766 20.2661L70.5772 20.2475C70.6774 20.2288 70.7731 20.2109 70.8645 20.1915C70.9865 20.1658 71.0985 20.1328 71.2014 20.0846ZM69.4183 22.8505C69.3687 22.6872 69.3449 22.5169 69.3478 22.3459C69.3693 22.2478 69.4085 22.1546 69.4633 22.0711C69.5178 21.9836 69.5883 21.9063 69.6717 21.8378C69.8601 21.6873 70.0929 21.6065 70.3322 21.6085C70.6305 21.6085 70.855 21.7022 71.012 21.8868C71.1694 22.0742 71.2464 22.3071 71.2464 22.5885C71.2464 22.7277 71.2205 22.854 71.1759 22.9703C71.1325 23.0849 71.0671 23.1896 70.9833 23.2779C70.8996 23.3663 70.7993 23.4365 70.6885 23.4846C70.573 23.5363 70.4476 23.5624 70.3066 23.5624C70.1656 23.5624 70.0372 23.5332 69.9187 23.4749C69.8009 23.4177 69.6968 23.3349 69.6138 23.2323C69.5269 23.1179 69.4607 22.9887 69.4183 22.8505ZM75.6685 21.0973H75.1617V23.9764H75.6685V21.0973ZM72.5127 21.0973H73.0196V21.9611H73.4879C73.709 21.9611 73.8884 21.9902 74.0329 22.0451C74.1773 22.1003 74.2928 22.1745 74.3793 22.2651C74.4658 22.3557 74.5268 22.4626 74.5622 22.5819C74.5973 22.7017 74.6167 22.8245 74.6167 22.954C74.6167 23.0834 74.5973 23.2066 74.5557 23.3295C74.5172 23.4523 74.4498 23.5589 74.3599 23.656C74.2703 23.7532 74.1484 23.831 73.9944 23.8893C73.8404 23.9472 73.6545 23.9795 73.43 23.9795H72.5097V21.0973H72.5127ZM73.0196 22.4427V23.4974H73.3885C73.6419 23.4974 73.8214 23.4523 73.9239 23.3614C74.0268 23.2708 74.0779 23.1417 74.0779 22.9703C74.0779 22.7953 74.0234 22.6632 73.9208 22.5722C73.8149 22.4816 73.6385 22.4361 73.3949 22.4361H73.0196V22.4427Z" fill="white"/>
<path d="M79.0194 23.562C78.8974 23.7207 78.737 23.8404 78.5445 23.9212C78.3471 24.0032 78.1358 24.0449 77.9226 24.0441C77.7106 24.047 77.4998 24.0109 77.3003 23.9376C77.1211 23.8713 76.9573 23.7678 76.8194 23.6336C76.6831 23.4991 76.576 23.337 76.505 23.1577C76.4287 22.9612 76.3906 22.7514 76.3929 22.54C76.3929 22.3301 76.428 22.1357 76.5019 21.9514C76.5724 21.7668 76.6749 21.6085 76.8034 21.4756C76.9318 21.3399 77.0854 21.2365 77.2587 21.1557C77.4415 21.0735 77.6395 21.0327 77.8391 21.0359C78.0667 21.0359 78.2785 21.0651 78.471 21.123C78.6634 21.1813 78.8269 21.2785 78.9614 21.4146L78.7275 21.8189C78.6143 21.7142 78.481 21.6348 78.3361 21.5856C78.1983 21.5403 78.0544 21.5175 77.9096 21.518C77.7816 21.518 77.6597 21.5436 77.5408 21.5922C77.4241 21.6402 77.3175 21.7106 77.2267 21.7994C77.1345 21.8914 77.0614 22.0014 77.0118 22.1229C76.9573 22.2488 76.9318 22.388 76.9318 22.5431C76.9318 22.7017 76.9604 22.844 77.0149 22.9669C77.0693 23.0932 77.1433 23.2001 77.2363 23.2903C77.3293 23.3813 77.4382 23.4489 77.5632 23.4944C77.6886 23.5395 77.8201 23.5655 77.9611 23.5655C78.1341 23.5655 78.2881 23.5298 78.426 23.4617C78.5593 23.3961 78.6791 23.305 78.7789 23.1935L79.0194 23.562ZM79.2789 21.0973H81.8798V21.6085H80.8341V23.9761H80.3276V21.6085H79.2823V21.0973H79.2789Z" fill="white"/>
<path fill-rule="evenodd" clip-rule="evenodd" d="M82.938 21.0979H82.4312V25.2575H82.938V23.844C83.0405 23.9121 83.1625 23.9607 83.3035 23.9929C83.4445 24.0252 83.5919 24.0411 83.7429 24.0411C83.9673 24.0411 84.1693 23.9991 84.3522 23.9218C84.5276 23.8452 84.6866 23.7343 84.8202 23.5952C84.9517 23.4557 85.0511 23.2939 85.1216 23.1031C85.1921 22.9126 85.2276 22.7085 85.2276 22.4919C85.2276 22.2781 85.1956 22.081 85.1346 21.903C85.0772 21.7339 84.9878 21.5779 84.8716 21.4439C84.7576 21.3131 84.6161 21.2103 84.4578 21.143C84.2847 21.0671 84.0978 21.0296 83.9094 21.033C83.7108 21.033 83.5249 21.0718 83.3484 21.1496C83.172 21.2273 83.034 21.3206 82.938 21.4373V21.0979ZM83.2909 21.6316C83.4353 21.5539 83.5923 21.515 83.7623 21.515C83.9098 21.515 84.0412 21.5376 84.1601 21.5862C84.2756 21.6347 84.3716 21.7028 84.4521 21.7934C84.5321 21.8839 84.5931 21.9877 84.6315 22.1102C84.6731 22.233 84.6925 22.366 84.6925 22.5114C84.6925 22.6669 84.6666 22.8057 84.622 22.9351C84.58 23.0579 84.5133 23.1703 84.4261 23.2652C84.3386 23.3589 84.2326 23.4327 84.1152 23.4817C83.9842 23.5377 83.8433 23.5652 83.7013 23.5626C83.5637 23.5626 83.4353 23.5466 83.3134 23.5144C83.1799 23.4773 83.0532 23.4182 82.9384 23.3394V21.9127C83.0279 21.8031 83.1468 21.7094 83.2909 21.6316ZM89.1143 21.0975H88.6074V23.9766H89.1143V21.0975ZM85.9554 21.0975H86.4623V21.9613H86.9303C87.1517 21.9613 87.3312 21.9905 87.4756 22.0453C87.62 22.1005 87.7355 22.1747 87.822 22.2653C87.9085 22.3559 87.9695 22.4628 88.0045 22.5821C88.04 22.7019 88.059 22.8247 88.059 22.9542C88.059 23.0836 88.04 23.2069 87.9984 23.3297C87.9599 23.4526 87.8925 23.5591 87.8026 23.6563C87.713 23.7535 87.5911 23.8312 87.4371 23.8895C87.2831 23.9474 87.0972 23.9797 86.8727 23.9797H85.9524V21.0975H85.9554ZM86.4657 22.443V23.4977H86.8346C87.0876 23.4977 87.2675 23.4526 87.37 23.3616C87.4725 23.271 87.524 23.1419 87.524 22.9705C87.524 22.7956 87.4695 22.6634 87.367 22.5724C87.261 22.4818 87.0846 22.4364 86.8411 22.4364H86.4657V22.443Z" fill="white"/>
<path d="M91.5454 22.4851L92.6292 23.9764H92.0073L91.17 22.8117L90.3202 23.9764H89.7303L90.8076 22.5108L89.7943 21.0973H90.4166L91.1895 22.1842L91.9749 21.0973H92.5652L91.5454 22.4851ZM47.0281 27.5346H45.4729V29.9348H44.9661V27.0561H47.5346V29.9348H47.0281V27.5346ZM50.411 27.5669H49.4107L49.3783 28.0521C49.3432 28.463 49.2952 28.793 49.2277 29.0449C49.1603 29.2976 49.0768 29.4916 48.9808 29.6273C48.8848 29.7634 48.7723 29.8571 48.6439 29.9025C48.5114 29.9515 48.3714 29.9756 48.2304 29.9737L48.192 29.4753C48.2465 29.4784 48.3105 29.4656 48.381 29.4333C48.4519 29.401 48.5224 29.3299 48.5894 29.2234C48.6569 29.113 48.7179 28.9579 48.7723 28.7573C48.8268 28.5536 48.8623 28.2884 48.8813 27.9549L48.9328 27.0588H50.9179V29.9379H50.411V27.5669Z" fill="white"/>
<path fill-rule="evenodd" clip-rule="evenodd" d="M52.2846 27.0629C52.1208 27.108 51.9733 27.1725 51.8483 27.2534L51.9832 27.6612C52.0987 27.6029 52.2141 27.5543 52.3292 27.5123C52.4447 27.4703 52.5926 27.4509 52.7686 27.4509C52.91 27.4509 53.022 27.4734 53.1085 27.5185C53.1954 27.5609 53.2595 27.6254 53.3044 27.7032C53.349 27.7809 53.378 27.8781 53.394 27.9909C53.41 28.1044 53.4165 28.2272 53.4165 28.3598C53.3128 28.2862 53.1945 28.2366 53.0701 28.2144C52.9497 28.19 52.8273 28.1769 52.7046 28.1755C52.5541 28.1755 52.4127 28.1981 52.2782 28.2369C52.1433 28.2758 52.0278 28.3341 51.9348 28.4119C51.8399 28.4895 51.7632 28.5878 51.7103 28.6996C51.654 28.822 51.6256 28.9558 51.6273 29.091C51.6273 29.3721 51.7073 29.5925 51.8677 29.7476C52.0278 29.9027 52.2397 29.9805 52.5026 29.9805C52.74 29.9805 52.9291 29.9385 53.0735 29.8542C53.2175 29.7702 53.333 29.673 53.4165 29.563V29.935H53.8913V28.1689C53.8913 27.7938 53.8109 27.5026 53.6474 27.2989C53.487 27.0948 53.2015 26.9918 52.7976 26.9918C52.6243 26.9919 52.4518 27.0161 52.2846 27.0629ZM53.1345 29.3946C53.0194 29.479 52.8685 29.5179 52.6825 29.5179C52.5156 29.5179 52.3906 29.4759 52.301 29.3946C52.2111 29.3107 52.1661 29.2007 52.1661 29.065C52.1661 28.9841 52.1821 28.9161 52.2176 28.8547C52.2526 28.7932 52.301 28.7447 52.3555 28.7058C52.41 28.6669 52.4771 28.6377 52.551 28.6183C52.6243 28.599 52.6998 28.5893 52.7755 28.5895C53.0255 28.5895 53.2404 28.651 53.4168 28.78V29.1455C53.3336 29.2405 53.2387 29.3243 53.1345 29.3946Z" fill="white"/>
<path d="M54.3877 27.0563H56.9886V27.5671H55.9429V29.935H55.4364V27.5675H54.3911V27.0563H54.3877Z" fill="white"/>
<path fill-rule="evenodd" clip-rule="evenodd" d="M59.3553 29.9058C59.5477 29.8443 59.7112 29.7503 59.8522 29.6212L59.6982 29.22C59.6053 29.3044 59.4803 29.3755 59.3294 29.4338C59.1788 29.4921 59.0089 29.5209 58.8229 29.5209C58.5439 29.5209 58.313 29.4467 58.1301 29.2947C57.9472 29.1426 57.8481 28.9292 57.8256 28.6571H60.0191C60.0412 28.5572 60.0511 28.4437 60.0511 28.3111C60.0511 28.114 60.0157 27.936 59.9452 27.7742C59.8795 27.6172 59.7835 27.4754 59.6628 27.3571C59.5409 27.2395 59.397 27.1481 59.2398 27.0885C59.0752 27.0233 58.9 26.9904 58.7234 26.9913C58.486 26.9913 58.2776 27.0333 58.095 27.111C57.9223 27.1849 57.7662 27.2939 57.6362 27.4314C57.5098 27.568 57.4126 27.7299 57.3508 27.9068C57.2832 28.0953 57.2495 28.2947 57.2513 28.4954C57.2513 28.722 57.2898 28.9288 57.3603 29.1135C57.4312 29.2978 57.5367 29.4564 57.6682 29.5889C57.7997 29.7215 57.9601 29.8218 58.1495 29.8929C58.3521 29.9664 58.5659 30.0026 58.781 29.9998C58.9704 29.9998 59.1628 29.9672 59.3553 29.9058ZM58.0695 27.6868C58.2265 27.5414 58.4349 27.4702 58.6979 27.4702C58.9483 27.4702 59.1438 27.5414 59.2882 27.6739C59.4322 27.81 59.5092 27.9974 59.5222 28.2369H57.7905C57.815 28.025 57.9141 27.8295 58.0695 27.6868ZM60.2981 27.0562H60.9394L61.9173 28.4441L60.872 29.9349H60.2501L61.3464 28.4437L60.2981 27.0562ZM62.0423 27.0562H62.5491V29.9349H62.0423V27.0562ZM64.3608 29.9349L63.245 28.4437L64.2873 27.0558H63.6585L62.6741 28.4437L63.7324 29.9349H64.3608ZM66.6763 29.9058C66.8688 29.8443 67.0322 29.7503 67.1732 29.6212L67.0193 29.22C66.9263 29.3044 66.8013 29.3755 66.6508 29.4338C66.4999 29.4921 66.3299 29.5209 66.1439 29.5209C65.865 29.5209 65.634 29.4467 65.4511 29.2947C65.2686 29.1426 65.1691 28.9292 65.1466 28.6571H67.3402C67.3626 28.5572 67.3722 28.4437 67.3722 28.3111C67.3722 28.114 67.3371 27.936 67.2662 27.7742C67.2006 27.6173 67.1047 27.4755 66.9842 27.3571C66.8622 27.2395 66.7182 27.1481 66.5608 27.0885C66.3962 27.0233 66.221 26.9903 66.0445 26.9913C65.8074 26.9913 65.599 27.0333 65.4161 27.111C65.2435 27.185 65.0876 27.294 64.9576 27.4314C64.831 27.5678 64.7338 27.7297 64.6722 27.9068C64.6044 28.0952 64.5707 28.2947 64.5727 28.4954C64.5727 28.722 64.6112 28.9288 64.6817 29.1135C64.7522 29.2978 64.8581 29.4564 64.9896 29.5889C65.1211 29.7215 65.2812 29.8218 65.4706 29.8929C65.6733 29.9664 65.8872 30.0026 66.1024 29.9998C66.2973 29.9984 66.4908 29.9667 66.6763 29.9058ZM65.3905 27.6868C65.5479 27.5414 65.7564 27.4702 66.0193 27.4702C66.2663 27.4702 66.4648 27.5414 66.6092 27.6739C66.7537 27.81 66.8306 27.9974 66.8432 28.2369H65.1116C65.136 28.025 65.2352 27.8295 65.3905 27.6868ZM69.4281 26.089C69.1297 26.089 68.9662 25.9207 68.9407 25.5844H68.4628C68.4628 25.7134 68.4853 25.8301 68.5269 25.9401C68.5688 26.0501 68.6298 26.1438 68.7098 26.2215C68.7898 26.2993 68.8927 26.3607 69.0112 26.4089C69.1297 26.4575 69.2677 26.4801 69.4247 26.4801C69.5691 26.4801 69.6975 26.4575 69.813 26.4089C69.9285 26.3638 70.0245 26.2993 70.108 26.2215C70.188 26.1438 70.2524 26.0501 70.297 25.9401C70.342 25.8301 70.3645 25.7134 70.3645 25.5844H69.89C69.8675 25.9207 69.7101 26.089 69.4281 26.089ZM68.0585 27.0558V29.9349H68.5653L70.2135 27.7902V29.9349H70.7204V27.0558H70.2135L68.5653 29.2006V27.0558H68.0585Z" fill="white"/>
</svg>
