<svg width="15" height="24" viewBox="0 0 15 24" fill="none" xmlns="http://www.w3.org/2000/svg">
<path d="M12 7.8H14.4C14.4 4.3956 11.094 2.8428 8.4 2.4852V0H6V2.4852C3.306 2.8428 0 4.3956 0 7.8C0 11.0472 3.1992 12.7356 6 13.116V19.08C4.2624 18.7788 2.4 17.8512 2.4 16.2H0C0 19.3068 2.91 21.1428 6 21.5232V24H8.4V21.516C11.094 21.1584 14.4 19.6044 14.4 16.2C14.4 12.7956 11.094 11.2428 8.4 10.8852V4.92C9.996 5.2068 12 6.0492 12 7.8ZM2.4 7.8C2.4 6.0492 4.404 5.2068 6 4.92V10.6788C4.3548 10.3752 2.4 9.4764 2.4 7.8ZM12 16.2C12 17.9508 9.996 18.7932 8.4 19.08V13.32C9.996 13.6068 12 14.4492 12 16.2Z" fill="#979797"/>
</svg>
